<?xml version="1.0" encoding="UTF-8" standalone="no"?>
<!-- Created with Inkscape (http://www.inkscape.org/) -->

<svg
   width="94.384003mm"
   height="97.700996mm"
   viewBox="0 0 94.384003 97.700996"
   version="1.1"
   id="svg1"
   sodipodi:docname="logo.svg"
   inkscape:version="1.4 (86a8ad7, 2024-10-11)"
   xmlns:inkscape="http://www.inkscape.org/namespaces/inkscape"
   xmlns:sodipodi="http://sodipodi.sourceforge.net/DTD/sodipodi-0.dtd"
   xmlns:xlink="http://www.w3.org/1999/xlink"
   xmlns="http://www.w3.org/2000/svg"
   xmlns:svg="http://www.w3.org/2000/svg">
  <sodipodi:namedview
     id="namedview1"
     pagecolor="#ffffff"
     bordercolor="#000000"
     borderopacity="0.25"
     inkscape:showpageshadow="2"
     inkscape:pageopacity="0.0"
     inkscape:pagecheckerboard="0"
     inkscape:deskcolor="#d1d1d1"
     inkscape:document-units="mm"
     inkscape:zoom="1.4074593"
     inkscape:cx="104.08827"
     inkscape:cy="142.45528"
     inkscape:window-width="1920"
     inkscape:window-height="974"
     inkscape:window-x="-11"
     inkscape:window-y="-11"
     inkscape:window-maximized="1"
     inkscape:current-layer="svg1" />
  <defs
     id="defs1">
    <linearGradient
       xlink:href="#linearGradient12685"
       id="linearGradient12687"
       x1="107.03213"
       y1="61.031052"
       x2="103.83016"
       y2="219.51115"
       gradientUnits="userSpaceOnUse" />
    <linearGradient
       id="linearGradient12685">
      <stop
         style="stop-color:#00ffff;stop-opacity:1;"
         offset="0.22835918"
         id="stop12681" />
      <stop
         style="stop-color:#0000ff;stop-opacity:1;"
         offset="0.70677894"
         id="stop12683" />
    </linearGradient>
  </defs>
  <g
     id="layer1">
    <g
       id="layer1-8"
       transform="translate(-133.51834,-46.002628)">
      <g
         id="g5464"
         transform="matrix(0.61670251,0,0,0.61670251,114.00945,8.5939331)">
        <g
           id="g5460">
          <path
             style="fill:url(#linearGradient12687);fill-opacity:1;stroke-width:0.265;stroke-dasharray:none"
             d="m 45.661512,218.91488 c -0.36139,-0.18057 -0.77568,-0.66559 -0.92066,-1.07782 -0.23212,-0.66003 -0.0775,-1.10162 1.29508,-3.69854 0.85726,-1.62197 3.30645,-5.98513 5.44265,-9.69591 2.13619,-3.71078 5.70901,-9.96156 7.93961,-13.89062 2.23059,-3.92906 5.94215,-10.34683 8.2479,-14.26171 2.30575,-3.91487 4.15616,-7.15406 4.11202,-7.19821 -0.0441,-0.0441 -1.62341,0.58255 -3.50948,1.39264 -7.33115,3.14883 -20.42072,8.03181 -21.66266,8.08112 -0.80757,0.0321 -1.74261,-0.80838 -1.74261,-1.56631 0,-0.21833 0.58212,-1.366 1.29359,-2.55037 1.62585,-2.70652 3.32151,-6.09482 5.28966,-10.56991 1.54866,-3.52129 2.12953,-4.98269 6.27722,-15.79288 5.00445,-13.04314 9.24617,-21.53402 14.92047,-29.8671 5.17347,-7.59757 9.53506,-12.22563 18.52115,-19.652666 3.27422,-2.706151 6.52365,-5.619314 7.22096,-6.473693 1.861098,-2.280333 3.003288,-4.849866 3.887658,-8.745898 1.53623,-6.767792 3.38677,-10.507934 7.16929,-14.489948 3.46931,-3.652281 7.21563,-5.928997 12.28147,-7.463707 2.23342,-0.67662 6.33679,-0.775914 7.40833,-0.7214 0.84419,0.04295 5.27271,0.17475 7.40834,0.72984 3.10092,0.805985 6.2728,2.606425 8.8699,5.192904 2.37869,2.368964 3.14793,3.624004 3.81254,6.220249 0.31546,1.232311 0.59803,1.727675 1.26998,2.226387 0.47533,0.352785 1.82182,1.615764 2.9922,2.80662 4.08179,4.153215 5.4355,8.752608 4.10605,13.950718 -0.67251,2.629482 -1.37246,3.951846 -3.0061,5.679181 -1.33619,1.412824 -1.3458,1.417468 -1.68298,0.813162 -0.18651,-0.334274 -0.63499,-1.560274 -0.99661,-2.724441 -0.36163,-1.164167 -0.82651,-2.347701 -1.03308,-2.630075 -0.36198,-0.494826 -0.3904,-0.484751 -0.78499,0.278307 -0.72186,1.395921 -2.60608,2.888592 -4.41925,3.500909 -0.92938,0.313857 -1.91805,0.570651 -2.19703,0.570651 -0.60264,0 -0.60448,-0.01492 0.75656,6.12544 1.40609,6.34357 1.76483,9.14812 1.77172,13.8506 0.0113,7.71891 -1.31716,13.34166 -4.89497,20.71788 -3.99575,8.2379 -12.80087,17.95763 -21.56952,23.81002 -1.39516,0.93116 -1.39516,0.93116 2.04311,2.18565 3.96879,1.44806 6.41868,3.0636 7.37592,3.89279 1.91968,1.66289 2.13034,4.88575 1.20059,6.41059 -0.28242,0.46317 -1.47332,1.77241 -2.22207,2.36427 -1.92729,1.52343 -3.43052,1.4142 -3.43052,-0.24927 0,-0.50815 0.38412,-1.022 1.45521,-1.94671 1.66325,-1.43594 1.81842,-2.11973 0.92682,-4.08428 -0.45836,-1.00997 -0.74628,-1.2447 -2.54764,-2.07697 -2.05322,-0.94865 -7.59667,-2.84597 -9.18663,-3.14425 -0.72208,-0.13546 -1.55564,0.17993 -5.08232,1.92299 -2.32021,1.14677 -5.19928,2.49513 -6.39792,2.99637 -1.19865,0.50124 -2.17683,0.97087 -2.17374,1.04363 0.003,0.0728 0.86474,0.52508 1.91478,1.00516 4.08355,1.86701 5.55136,3.5833 5.58924,6.53547 0.032,2.49287 -0.83082,3.96486 -3.0804,5.2553 -2.00021,1.14739 -2.95205,1.1562 -3.37975,0.0313 -0.34408,-0.90498 -0.0898,-1.39186 1.02675,-1.96632 0.52776,-0.27152 1.30589,-0.85825 1.72919,-1.30384 0.6299,-0.66309 0.76628,-1.03124 0.75122,-2.02783 -0.0212,-1.40197 -0.35443,-1.85835 -2.24072,-3.06877 -2.06191,-1.32313 -5.433448,-2.34377 -7.742298,-2.34377 -1.07494,0 -2.24249,0.10952 -2.59456,0.24338 -0.45355,0.17243 -1.35915,1.50282 -3.1068,4.56406 -10.29009,18.02441 -14.94633,24.63252 -20.76147,29.46452 -2.80863,2.33379 -6.83617,4.31133 -9.23724,4.53555 -1.51064,0.14106 -1.79497,0.25788 -2.32724,0.95615 -0.64495,0.84608 -3.34854,3.08498 -5.10427,4.22695 -2.02102,1.31451 -6.12508,2.27539 -7.27165,1.70249 z m 5.15498,-3.79767 c 3.37168,-1.68557 6.3951,-4.84835 10.62902,-11.11893 2.93151,-4.34166 3.99294,-6.06992 9.88322,-16.09213 7.16666,-12.19394 9.83869,-16.65868 10.25291,-17.13177 0.82072,-0.93735 3.0359,-0.1204 2.61905,0.9659 -0.0824,0.21466 -1.7485,3.04682 -3.70251,6.29371 -1.95402,3.24688 -5.67304,9.47529 -8.2645,13.84091 -4.78755,8.06521 -9.2524,15.12772 -10.24444,16.20469 -0.94623,1.02723 -0.29324,0.96105 1.84426,-0.18692 5.07277,-2.72438 8.66563,-6.43338 13.97839,-14.43027 2.56177,-3.85602 9.46932,-15.64326 13.35356,-22.78688 6.50763,-11.96838 7.2474,-13.19127 8.03512,-13.28243 0.77517,-0.0897 1.754458,0.56213 1.754458,1.16781 0,0.18609 -1.434768,2.9199 -3.188378,6.07512 -1.75362,3.15522 -3.15115,5.77401 -3.10562,5.81953 0.31623,0.31623 9.904148,-3.79522 15.927168,-6.82981 5.09684,-2.56796 8.59484,-4.87138 12.45954,-8.20456 9.00821,-7.76928 14.93382,-16.05996 17.99387,-25.17566 2.01085,-5.99023 2.59482,-13.49615 1.56588,-20.12687 -0.0903,-0.58208 -0.5632,-2.78474 -1.05084,-4.89479 -1.53034,-6.621894 -1.55189,-6.865663 -1.08303,-12.250452 0.2306,-2.648347 0.53919,-6.382023 0.68576,-8.297061 0.39262,-5.129824 1.63648,-7.890654 4.19187,-9.304083 1.38533,-0.766254 1.44039,-1.421534 0.3096,-3.684453 -1.60865,-3.219189 -5.62185,-6.180031 -10.17769,-7.508852 -1.82612,-0.532631 -5.134,-0.553896 -6.35,-0.618201 -0.56481,-0.02987 -4.54234,0.0881 -6.29404,0.592495 -4.20513,1.210755 -7.24674,2.952042 -10.43045,5.971322 -3.34926,3.176279 -5.60248,7.302387 -6.84674,12.537771 -1.8279,7.691134 -3.57803,10.796837 -8.300068,14.728995 -1.03048,0.858105 -1.81992,1.613874 -1.7543,1.679485 0.0656,0.06561 0.72868,-0.0114 1.47349,-0.171127 1.85572,-0.397981 3.745798,-0.364265 6.499468,0.115933 6.92045,1.206828 12.76879,6.090648 14.85513,12.405188 0.62893,1.90352 0.70477,2.52829 0.69307,5.70929 -0.0195,5.30236 -1.13077,9.95286 -3.63532,15.21354 -2.70175,5.67488 -5.67458,9.82832 -10.86487,15.17964 -6.293848,6.48912 -12.508498,11.21197 -19.847808,15.08343 -9.04527,4.77134 -7.60128,3.4063 -12.76837,12.07027 -6.62377,11.10648 -9.53223,16.1154 -16.59221,28.575 -3.46317,6.11187 -6.53926,11.51761 -6.83575,12.01275 -0.53907,0.90026 -0.53907,0.90026 0.23506,0.70704 0.42576,-0.10627 1.36944,-0.49083 2.09704,-0.85457 z m 55.990178,-56.15213 c -0.31141,-0.31141 -0.45218,-0.73324 -0.37525,-1.12448 0.0699,-0.35548 2.44408,-3.01308 5.49267,-6.14837 5.36955,-5.52226 5.36955,-5.52226 6.18322,-4.92069 0.44752,0.33086 0.87618,0.76447 0.95259,0.96359 0.0789,0.20573 -0.64544,1.24493 -1.67792,2.40715 -2.93264,3.30113 -9.15544,9.32117 -9.63512,9.32117 -0.243,0 -0.66609,-0.22427 -0.94019,-0.49837 z m 13.32574,-11.24743 c -0.43927,-0.19141 -1.18341,-0.7862 -1.65365,-1.32177 -0.7105,-0.80922 -0.85497,-1.18915 -0.85497,-2.24835 0,-4.32491 5.79085,-5.63752 7.67748,-1.74026 1.58825,3.28086 -1.81122,6.77339 -5.16886,5.31038 z m 2.63101,-2.78447 c 0.62883,-0.69485 0.43174,-1.64173 -0.44328,-2.12964 -0.65381,-0.36457 -0.8014,-0.36457 -1.45521,0 -1.3656,0.76146 -0.8481,2.63699 0.72761,2.63699 0.39145,0 0.91835,-0.22831 1.17088,-0.50735 z m 0.0576,-10.63134 c -0.54276,-0.77489 -0.12903,-1.82706 1.18538,-3.01454 1.04675,-0.94568 1.04675,-0.94568 1.21065,-12.01376 0.1639,-11.06807 0.1639,-11.06807 -5.69908,-17.0612 -5.86297,-5.993135 -5.86297,-5.993135 -5.8619,-10.685079 5.3e-4,-2.580568 0.079,-6.219991 0.17425,-8.087606 0.17317,-3.39566 0.17317,-3.39566 2.18174,-5.368023 2.21624,-2.176302 2.94463,-2.528904 3.73901,-1.81 0.91557,0.828581 0.6493,1.625763 -1.17636,3.521807 -1.69486,1.760212 -1.69486,1.760212 -1.88712,8.415457 -0.19226,6.655242 -0.19226,6.655242 5.55452,12.545354 3.16073,3.23956 5.84072,6.13829 5.95555,6.44163 0.11481,0.30334 0.11739,5.81314 0.006,12.24401 -0.22985,13.23668 -0.0338,12.13416 -2.55247,14.35121 -1.35707,1.19455 -2.24367,1.3577 -2.82989,0.52074 z M 134.61,126.86678 c -0.23071,-0.23071 -0.3175,-2.20354 -0.3175,-7.21717 0,-7.45819 0.10856,-8.07575 1.41964,-8.07575 1.45938,0 1.47486,0.0783 1.50789,7.62578 0.0275,6.2799 -0.0149,7.01446 -0.4312,7.47448 -0.51748,0.57182 -1.69551,0.67598 -2.17883,0.19266 z m -4.08835,-42.379036 c -2.56045,-0.950608 -3.99252,-3.039708 -3.95384,-5.767851 0.0662,-4.667407 5.15752,-7.279914 9.06093,-4.649407 1.27728,0.860756 2.36792,3.084185 2.36792,4.827331 0,3.934601 -3.95909,6.89527 -7.47501,5.589927 z m 3.47697,-3.224626 c 2.03843,-1.71523 0.72645,-5.143426 -1.9684,-5.143426 -0.44945,0 -1.03597,0.334915 -1.63424,0.933188 -0.86521,0.865201 -0.923,1.023605 -0.79331,2.17423 0.2723,2.415781 2.64087,3.512804 4.39595,2.036008 z M 64.177952,169.05085 c 6.9007,-2.77166 9.51561,-3.97819 16.10509,-7.43094 8.89678,-4.66174 11.77273,-6.56346 17.00612,-11.24527 10.939178,-9.78622 16.739488,-18.89455 18.347958,-28.8121 1.08539,-6.69233 -0.005,-11.08713 -3.67016,-14.79085 -2.79509,-2.82459 -5.42115,-4.17837 -9.45582,-4.87464 -3.490088,-0.60229 -7.767428,-0.0693 -11.046888,1.37653 -4.71346,2.07805 -11.51915,9.20168 -17.29015,18.0979 -5.70665,8.797 -9.46776,16.63263 -15.29315,31.86063 -3.10318,8.11197 -5.07433,12.70936 -7.46587,17.413 -1.05351,2.07201 -1.95296,3.84594 -1.99879,3.94207 -0.0998,0.20928 8.30072,-2.94131 14.76166,-5.53633 z m 0.78072,-12.71975 c -0.55276,-0.4476 -0.59176,-0.59228 -0.32023,-1.18821 0.60887,-1.33634 1.35826,-1.56956 4.9092,-1.52782 3.24565,0.0382 3.24565,0.0382 7.95469,-4.86195 4.70903,-4.90009 4.70903,-4.90009 8.46095,-4.90009 3.75192,0 3.75192,0 8.97497,-5.22794 3.74024,-3.74376 5.223028,-5.39968 5.223028,-5.83287 0,-0.3327 0.29225,-0.89716 0.64944,-1.25434 1.35717,-1.35718 3.5839,-0.46526 3.5839,1.43553 0,1.1933 -0.36377,1.75692 -1.37895,2.13654 -0.55152,0.20623 -2.91174,2.41256 -6.447298,6.02689 -5.57728,5.70156 -5.57728,5.70156 -9.28267,5.65086 -3.70538,-0.0507 -3.70538,-0.0507 -8.48632,4.85731 -4.78093,4.90802 -4.78093,4.90802 -8.62121,4.90802 -2.11215,0 -4.00899,0.0647 -4.21518,0.14387 -0.2062,0.0791 -0.65815,-0.0855 -1.00432,-0.3658 z m 3.18803,-10.55426 c -0.56027,-0.21327 -0.78502,-0.62346 -0.7897,-1.44127 -0.003,-0.55675 0.93049,-1.68769 4.36867,-5.29167 4.37272,-4.58358 4.37272,-4.58358 4.20298,-7.15845 -0.0933,-1.41618 -0.0934,-2.96399 -4e-5,-3.43958 0.13136,-0.66936 1.59715,-2.32922 6.48804,-7.34701 6.31833,-6.48229 6.31833,-6.48229 7.07055,-6.07707 0.48806,0.26292 0.78146,0.65622 0.8355,1.12001 0.0715,0.61336 -0.72626,1.5655 -5.6224,6.71066 -5.70568,5.99588 -5.70568,5.99588 -5.71742,9.46333 -0.0117,3.46745 -0.0117,3.46745 -4.98248,8.56068 -2.73391,2.80127 -5.08011,5.08382 -5.21378,5.07234 -0.13368,-0.0115 -0.42164,-0.0889 -0.63992,-0.17197 z m 16.57747,-11.93267 c -1.07439,-1.18718 -1.24072,-0.9777 9.28907,-11.69937 3.52012,-3.58428 3.52012,-3.58428 3.11429,-4.55557 -1.29864,-3.10809 1.0327,-6.96611 4.526068,-7.48997 2.73761,-0.41053 5.56655,1.38164 6.33083,4.01068 1.33418,4.58942 -2.84717,8.50016 -7.46047,6.97763 -0.989128,-0.32644 -0.989128,-0.32644 -7.707308,6.45701 -3.74537,3.78175 -6.92536,6.78345 -7.18639,6.78345 -0.25752,0 -0.66526,-0.21774 -0.90609,-0.48386 z m 19.564608,-16.02614 c 0.7374,-0.73739 0.89959,-1.09988 0.89959,-2.01052 0,-1.55016 -1.15089,-2.64615 -2.7787,-2.64615 -0.96828,0 -1.256,0.13754 -1.95639,0.93525 -1.248208,1.42162 -1.013728,3.13042 0.5613,4.09072 1.29285,0.78825 2.22139,0.68351 3.2742,-0.3693 z m 42.78494,-25.620021 c 1.27181,-1.393941 1.27181,-1.393941 0.52917,-1.697865 -0.40845,-0.167159 -1.41947,-0.388266 -2.24669,-0.491348 -1.69236,-0.210883 -1.58656,-0.374554 -1.90529,2.947343 -0.13033,1.35832 -0.13033,1.35832 1.11034,0.997066 0.91882,-0.267539 1.57059,-0.72286 2.51247,-1.755196 z m 7.64632,-0.798629 c 0.18677,-0.618463 0.34019,-2.142929 0.34093,-3.387701 0.001,-2.085917 -0.0768,-2.421419 -0.99694,-4.282599 -1.42842,-2.889448 -4.87514,-6.282518 -6.38486,-6.285481 -0.77544,-0.0016 -2.43434,1.92945 -2.92393,3.403486 -0.24155,0.727247 -0.52544,2.401874 -0.63087,3.721394 -0.19169,2.39913 -0.19169,2.39913 0.62819,2.39913 1.57282,0 3.96914,0.58006 5.24018,1.268453 1.35554,0.734152 3.87896,3.27923 3.87896,3.912245 0,0.789022 0.52347,0.326904 0.84834,-0.748927 z M 32.187832,202.08582 c -0.3045,-0.30449 -0.55363,-0.7733 -0.55363,-1.04178 0,-0.46634 0.76041,-1.36393 1.15548,-1.36393 0.10327,0 4.35501,-1.50002 9.4483,-3.33339 9.5228,-3.4278 10.33666,-3.61703 10.69537,-2.48683 0.45307,1.42748 0.0952,1.63224 -7.40853,4.23916 -2.61937,0.91 -6.36984,2.24393 -8.33437,2.96428 -1.96453,0.72035 -3.76923,1.36966 -4.01044,1.44292 -0.2412,0.0733 -0.68769,-0.11593 -0.99218,-0.42043 z m 60.21937,-18.99591 c -0.26293,-0.0677 -0.59351,-0.42683 -0.73464,-0.79801 -0.47064,-1.2379 0.18683,-1.73872 4.07708,-3.10566 3.79795,-1.33451 4.297008,-1.34658 4.953548,-0.11982 0.55578,1.03848 -0.21331,1.60607 -3.882058,2.86495 -3.97093,1.36256 -3.79806,1.31718 -4.41393,1.15854 z m 19.594188,-7.50807 c -0.60114,-0.35014 -0.5933,-1.43604 0.0148,-2.04409 0.26278,-0.26278 2.21767,-1.06307 4.34418,-1.77841 3.21411,-1.0812 3.99277,-1.25646 4.61545,-1.0388 0.57062,0.19946 0.76803,0.45515 0.82871,1.07334 0.0438,0.44633 -0.0752,0.93208 -0.26459,1.07945 -0.46764,0.36398 -8.07666,2.99631 -8.63203,2.98624 -0.2439,-0.004 -0.65182,-0.12941 -0.90648,-0.27773 z m 20.32567,-8.0675 c -0.51566,-0.51566 -0.53934,-1.53355 -0.0452,-1.94364 0.20381,-0.16915 2.43623,-1.00616 4.96094,-1.86002 2.5247,-0.85386 7.15022,-2.44726 10.27891,-3.54088 6.54674,-2.28838 19.13793,-6.62407 28.66924,-9.87208 3.61709,-1.23259 6.88855,-2.20463 7.26991,-2.16008 0.76413,0.0893 1.38193,1.0255 1.18178,1.79089 -0.0683,0.26102 -0.44144,0.6205 -0.82928,0.79886 -0.66701,0.30673 -11.56514,4.07383 -24.12081,8.33773 -3.1287,1.0625 -10.25662,3.49179 -15.83982,5.39841 -5.5832,1.90662 -10.36696,3.46658 -10.63058,3.46658 -0.26362,0 -0.66641,-0.1871 -0.89508,-0.41577 z"
             id="path189" />
        </g>
      </g>
    </g>
  </g>
</svg>
